<?xml version="1.0" encoding="utf-8"?>
<!-- Generator: Adobe Illustrator 18.0.0, SVG Export Plug-In . SVG Version: 6.00 Build 0)  -->
<!DOCTYPE svg PUBLIC "-//W3C//DTD SVG 1.1//EN" "http://www.w3.org/Graphics/SVG/1.1/DTD/svg11.dtd">
<svg version="1.1" id="Layer_1" xmlns="http://www.w3.org/2000/svg" xmlns:xlink="http://www.w3.org/1999/xlink" x="0px" y="0px"
	 viewBox="0 0 595 390" enable-background="new 0 0 595 390" xml:space="preserve">
<g>
	<g>
		<g>
			<g>
				<path fill="#58C2B2" d="M16,183.7c0,0,5.6,0.3,13.9,1.8c-1.6-10.6-0.5-18.4-0.5-18.4s4.9,1,12,3.5c-3.6-16.4,0.9-31.2,0.9-31.2
					s12,4,23.7,12.7c-0.4-21,9.5-39.2,9.5-39.2s17.5,10.2,27.9,28.2c4.9-11.8,10.8-19.7,10.8-19.7s9.7,10.4,14.7,26.6
					c7.2-10.8,14.1-17.8,14.1-17.8s7.9,15.6,6.2,36.7c9.9-9.6,19.1-15.4,19.1-15.4s7.4,21.2-3.9,44.1
					c-11.3,22.9-36.9,38.9-36.9,38.9s-2-5.8-2.3-14.6c-3.5,4.2-5.9,6.7-5.9,6.7s-2.2-4.5-4.1-11.8c-0.6,0.9-0.9,1.3-0.9,1.3
					s-5.2-5.5-9.9-14.8c-1.6,4-2.9,6.3-2.9,6.3s-5.4-3.1-11.9-9c0,3.4-0.3,6.5-0.7,9c3.3,6.7,5,13.5,5.9,19.4c6,11.9,7,21.9,7,21.9
					s-35.7-2-59.4-20C18.7,211,16,183.7,16,183.7z"/>
			</g>
			<g>
				<path fill="#DEC224" d="M61.2,301.7c12.7,41.4,38.5,70.2,88.5,54.8c50-15.4,55.1-53.7,42.4-95.1c-12.7-41.4-63.6-93.8-99.7-82.6
					C56.2,189.8,48.4,260.2,61.2,301.7z"/>
			</g>
			<path fill="#24B574" d="M37,191.6c0,0,8.8-0.5,19.1,1.5c-6.1-15.8-0.5-32.4-0.5-32.4s7.6,3.4,15.1,10.2
				c-1.5-13.5,2.3-24.9,2.3-24.9s10.3,4.6,19.5,13.8c4.1-9.4,9-15.7,9-15.7s9.4,9.2,13.6,23.2c4.9-8.8,10.2-14.6,10.2-14.6
				s12.1,14.5,11.8,33.9c8.6-8.4,20.1-13.1,20.1-13.1s7.5,14.7,0.2,28.6c-7.3,13.9-26.7,21.7-26.7,21.7s-1.7-3.2-2.7-8.1
				c-4.6,7.9-9.3,13-9.3,13s-6.3-7.6-9.7-19.2c-3.2,6.1-6.2,9.9-6.2,9.9s-4.6-4.6-8.8-12.1c-2.7-1.9-5.6-4.2-8.5-7
				c0.3,4.1,0.1,7.9-0.3,11c6.6,11.5,5.4,24.6,5.4,24.6s-26,1.4-40.8-10.8C35,212.9,37,191.6,37,191.6z"/>
			<g>
				<path fill="#8DC641" d="M83.6,211.3c-5-10.8-1.9-23.5-1.9-23.5s12.6,2.9,20,12.1c1.8-12.5,14-21.6,14-21.6s9.7,10.1,10.2,22.1
					c8.8-2.5,17.6-0.9,17.6-0.9s-1.5,15.7-12.1,23.7c-6.5,4.9-14.9,5.7-20.3,5.5c-3.3,2.6-13.8,10-24.6,8.3
					c-13-2.1-21.5-16.6-21.5-16.6S73.4,212.9,83.6,211.3z"/>
			</g>
		</g>
		<g opacity="0.43">
			<g>
				<path fill="#998776" d="M75.4,323.9c0.5-0.2,0.9-0.5,1.1-1c5.8-13.1,12.3-31.9,20.5-79.7c0.2-1-0.5-1.9-1.5-2.1
					c-1-0.2-1.9,0.5-2.1,1.5c-8.1,47.4-14.5,65.9-20.2,78.8c-0.4,0.9,0,2,0.9,2.4C74.5,324,75,324.1,75.4,323.9z"/>
			</g>
			<g>
				<path fill="#998776" d="M92.3,342.8c0.5-0.2,0.9-0.5,1.1-1c13-29.4,22.2-64.2,27.3-103.3c0.1-1-0.6-1.9-1.6-2.1
					c-1-0.1-1.9,0.6-2.1,1.6c-5.1,38.8-14.2,73.2-27,102.3c-0.4,0.9,0,2,0.9,2.4C91.4,342.9,91.9,343,92.3,342.8z"/>
			</g>
			<g>
				<path fill="#998776" d="M110.6,356.5c0.5-0.2,0.9-0.5,1.1-1c7.6-17.1,29.1-74.1,37.7-132.3c0.1-1-0.5-1.9-1.5-2.1
					c-1-0.1-1.9,0.5-2.1,1.5c-10.2,68.6-37.2,130.8-37.4,131.4c-0.4,0.9,0,2,0.9,2.4C109.8,356.6,110.2,356.6,110.6,356.5z"/>
			</g>
			<g>
				<path fill="#998776" d="M137.7,349.9c0.4-0.1,0.7-0.4,1-0.7c16.5-24.6,25-61,32.6-108c0.2-1-0.5-1.9-1.5-2.1
					c-1-0.2-1.9,0.5-2.1,1.5c-6.5,40.2-15,81-32.1,106.5c-0.6,0.8-0.3,2,0.5,2.5C136.6,350,137.2,350.1,137.7,349.9z"/>
			</g>
			<g>
				<g>
					<path fill="#998776" d="M185.6,293.3c0.4-0.1,0.8-0.4,1-0.8c0.5-0.9,0.3-2-0.6-2.5c-12-7.5-27.7-19.2-61-53.8
						c-0.7-0.7-1.9-0.8-2.6-0.1c-0.7,0.7-0.8,1.9,0,2.6c33.6,34.9,49.5,46.8,61.7,54.3C184.6,293.4,185.1,293.4,185.6,293.3z"/>
				</g>
				<g>
					<path fill="#998776" d="M182.3,318.4c0.4-0.1,0.8-0.4,1-0.8c0.5-0.9,0.3-2-0.6-2.5c-27-16.8-53.9-40.1-79.9-69.4
						c-0.7-0.8-1.8-0.8-2.6-0.2c-0.8,0.7-0.8,1.8-0.2,2.6c26.3,29.5,53.4,53.1,80.7,70.1C181.2,318.5,181.8,318.5,182.3,318.4z"/>
				</g>
				<g>
					<path fill="#998776" d="M174.8,340c0.4-0.1,0.8-0.4,1-0.8c0.5-0.9,0.3-2-0.6-2.5c-0.6-0.4-57.9-36.6-104.8-87.6
						c-0.7-0.7-1.8-0.8-2.6-0.1c-0.7,0.7-0.8,1.8-0.1,2.6c39.9,43.3,89.8,78.4,105.6,88.2C173.8,340.1,174.3,340.2,174.8,340z"/>
				</g>
				<g>
					<path fill="#998776" d="M148.7,349.8c0.5-0.2,0.9-0.5,1.2-1.1c0.4-0.9-0.1-2-1-2.4c-28.5-11.5-58.4-40.4-86.4-70
						c-0.7-0.7-1.9-0.8-2.6-0.1c-0.7,0.7-0.8,1.9-0.1,2.6c32.7,34.5,60.2,59.8,87.7,70.9C147.9,349.9,148.3,349.9,148.7,349.8z"/>
				</g>
			</g>
		</g>
	</g>
	<g>
		<g>
			<g>
				<path fill="#58C2B2" d="M578,184.7c0,0-5.6,0.3-13.9,1.8c1.6-10.6,0.5-18.4,0.5-18.4s-4.9,1-12,3.5c3.6-16.4-0.9-31.2-0.9-31.2
					s-12,4-23.7,12.7c0.4-21-9.5-39.2-9.5-39.2s-17.5,10.2-27.9,28.2c-4.9-11.8-10.8-19.7-10.8-19.7s-9.7,10.4-14.7,26.6
					c-7.2-10.8-14.1-17.8-14.1-17.8s-7.9,15.6-6.2,36.7c-9.9-9.6-19.1-15.4-19.1-15.4s-7.4,21.2,3.9,44.1
					c11.3,22.9,36.9,38.9,36.9,38.9s2-5.8,2.3-14.6c3.5,4.2,5.9,6.7,5.9,6.7s2.2-4.5,4.1-11.8c0.6,0.9,0.9,1.3,0.9,1.3
					s5.2-5.5,9.9-14.8c1.6,4,2.9,6.3,2.9,6.3s5.4-3.1,11.9-9c0,3.4,0.3,6.5,0.7,9c-3.3,6.7-5,13.5-5.9,19.4c-6,11.9-7,21.9-7,21.9
					s35.7-2,59.4-20C575.3,212,578,184.7,578,184.7z"/>
			</g>
			<g>
				<path fill="#DEC224" d="M532.8,302.7c-12.7,41.4-38.5,70.2-88.5,54.8c-50-15.4-55.1-53.7-42.4-95.1
					c12.7-41.4,63.6-93.8,99.7-82.6C537.8,190.8,545.6,261.2,532.8,302.7z"/>
			</g>
			<path fill="#24B574" d="M557,192.6c0,0-8.8-0.5-19.1,1.5c6.1-15.8,0.5-32.4,0.5-32.4s-7.6,3.4-15.1,10.2
				c1.5-13.5-2.3-24.9-2.3-24.9s-10.3,4.6-19.5,13.8c-4.1-9.4-9-15.7-9-15.7s-9.4,9.2-13.6,23.2c-4.9-8.8-10.2-14.6-10.2-14.6
				s-12.1,14.5-11.8,33.9c-8.6-8.4-20.1-13.1-20.1-13.1s-7.5,14.7-0.2,28.6c7.3,13.9,26.7,21.7,26.7,21.7s1.7-3.2,2.7-8.1
				c4.6,7.9,9.3,13,9.3,13s6.3-7.6,9.7-19.2c3.2,6.1,6.2,9.9,6.2,9.9s4.6-4.6,8.8-12.1c2.7-1.9,5.6-4.2,8.5-7
				c-0.3,4.1-0.1,7.9,0.3,11c-6.6,11.5-5.4,24.6-5.4,24.6s26,1.4,40.8-10.8C559,213.9,557,192.6,557,192.6z"/>
			<g>
				<path fill="#8DC641" d="M510.4,212.3c5-10.8,1.9-23.5,1.9-23.5s-12.6,2.9-20,12.1c-1.8-12.5-14-21.6-14-21.6
					s-9.7,10.1-10.2,22.1c-8.8-2.5-17.6-0.9-17.6-0.9s1.5,15.7,12.1,23.7c6.5,4.9,14.9,5.7,20.3,5.5c3.3,2.6,13.8,10,24.6,8.3
					c13-2.1,21.5-16.6,21.5-16.6S520.6,213.9,510.4,212.3z"/>
			</g>
		</g>
		<g opacity="0.43">
			<g>
				<path fill="#998776" d="M518.6,324.9c-0.5-0.2-0.9-0.5-1.1-1c-5.8-13.1-12.3-31.9-20.5-79.7c-0.2-1,0.5-1.9,1.5-2.1
					c1-0.2,1.9,0.5,2.1,1.5c8.1,47.4,14.5,65.9,20.2,78.8c0.4,0.9,0,2-0.9,2.4C519.5,325,519,325.1,518.6,324.9z"/>
			</g>
			<g>
				<path fill="#998776" d="M501.7,343.8c-0.5-0.2-0.9-0.5-1.1-1c-13-29.4-22.2-64.2-27.3-103.3c-0.1-1,0.6-1.9,1.6-2.1
					c1-0.1,1.9,0.6,2.1,1.6c5.1,38.8,14.2,73.2,27,102.3c0.4,0.9,0,2-0.9,2.4C502.6,343.9,502.1,344,501.7,343.8z"/>
			</g>
			<g>
				<path fill="#998776" d="M483.4,357.5c-0.5-0.2-0.9-0.5-1.1-1c-7.6-17.1-29.1-74.1-37.7-132.3c-0.1-1,0.5-1.9,1.5-2.1
					c1-0.1,1.9,0.5,2.1,1.5c10.2,68.6,37.2,130.8,37.4,131.4c0.4,0.9,0,2-0.9,2.4C484.2,357.6,483.8,357.6,483.4,357.5z"/>
			</g>
			<g>
				<path fill="#998776" d="M456.3,350.9c-0.4-0.1-0.7-0.4-1-0.7c-16.5-24.6-25-61-32.6-108c-0.2-1,0.5-1.9,1.5-2.1
					c1-0.2,1.9,0.5,2.1,1.5c6.5,40.2,15,81,32.1,106.5c0.6,0.8,0.3,2-0.5,2.5C457.4,351,456.8,351.1,456.3,350.9z"/>
			</g>
			<g>
				<g>
					<path fill="#998776" d="M408.4,294.3c-0.4-0.1-0.8-0.4-1-0.8c-0.5-0.9-0.3-2,0.6-2.5c12-7.5,27.7-19.2,61-53.8
						c0.7-0.7,1.9-0.8,2.6-0.1c0.7,0.7,0.8,1.9,0,2.6c-33.6,34.9-49.5,46.8-61.7,54.3C409.4,294.4,408.9,294.4,408.4,294.3z"/>
				</g>
				<g>
					<path fill="#998776" d="M411.7,319.4c-0.4-0.1-0.8-0.4-1-0.8c-0.5-0.9-0.3-2,0.6-2.5c27-16.8,53.9-40.1,79.9-69.4
						c0.7-0.8,1.8-0.8,2.6-0.2c0.8,0.7,0.8,1.8,0.2,2.6c-26.3,29.5-53.4,53.1-80.7,70.1C412.8,319.5,412.2,319.5,411.7,319.4z"/>
				</g>
				<g>
					<path fill="#998776" d="M419.2,341c-0.4-0.1-0.8-0.4-1-0.8c-0.5-0.9-0.3-2,0.6-2.5c0.6-0.4,57.9-36.6,104.8-87.6
						c0.7-0.7,1.8-0.8,2.6-0.1c0.7,0.7,0.8,1.8,0.1,2.6c-39.9,43.3-89.8,78.4-105.6,88.2C420.2,341.1,419.7,341.2,419.2,341z"/>
				</g>
				<g>
					<path fill="#998776" d="M445.3,350.8c-0.5-0.2-0.9-0.5-1.2-1.1c-0.4-0.9,0.1-2,1-2.4c28.5-11.5,58.4-40.4,86.4-70
						c0.7-0.7,1.9-0.8,2.6-0.1c0.7,0.7,0.8,1.9,0.1,2.6c-32.7,34.5-60.2,59.8-87.7,70.9C446.1,350.9,445.7,350.9,445.3,350.8z"/>
				</g>
			</g>
		</g>
	</g>
	<g>
		<rect x="153" y="166" fill="#412312" width="291" height="194.7"/>
		<path fill="#E6E6E5" d="M297.8,13c-0.2,0-0.3,0-0.5,0c0.1,0.6,0.2,1.1,0.3,1.7C297.6,14.2,297.7,13.6,297.8,13z"/>
		<path fill="#EAD8CD" d="M437.4,181.8c0.9-5.1,1.6-10.2,2-15.5c-3.8,0.3-7.6,0.5-11.4,0.5c-66.3,0-121.2-48.9-130.4-112.7
			c-9.3,63.7-64.1,112.7-130.4,112.7c-3.4,0-6.7-0.1-10-0.4c0.4,5.1,1.1,10.2,2,15.2c-8.5,0.8-15.1,8-15.1,16.7
			c0,9.3,7.5,16.8,16.8,16.8c2.9,0,5.7-0.7,8.1-2.1c22,49.6,71.7,84.2,129.4,84.2c57.6,0,107.1-34.4,129.2-83.8
			c2.2,1.1,4.6,1.7,7.2,1.7c9.3,0,16.8-7.5,16.8-16.8C451.5,190,445.4,183,437.4,181.8z"/>
		<path fill="#E6E6E5" d="M298.2,13c-0.2,0-0.3,0-0.5,0c-0.1,0.6-0.2,1.1-0.3,1.7c0.9,6.4,1.4,13,1.4,19.7c0,6.7-0.5,13.3-1.4,19.7
			c9.5,65.6,66,116,134.3,116c4,0,7.9-0.2,11.7-0.5c0.3-3.6,0.4-7.2,0.4-10.9C443.9,78.2,378.7,13,298.2,13z"/>
		<path fill="#E6E6E5" d="M297.5,54.1c-0.9-6.4-1.4-13-1.4-19.7c0-6.7,0.5-13.3,1.4-19.7c-0.1-0.6-0.2-1.1-0.3-1.7
			c-80,0.5-144.7,65.5-144.7,145.7c0,3.7,0.1,7.4,0.4,11c3.4,0.3,6.8,0.4,10.3,0.4C231.5,170.1,288,119.7,297.5,54.1z"/>
		<path fill="#E6E6E5" d="M297.5,54.1c0.9-6.4,1.4-13,1.4-19.7c0-6.7-0.5-13.3-1.4-19.7c-0.9,6.4-1.4,13-1.4,19.7
			C296.1,41.1,296.6,47.7,297.5,54.1z"/>
		<path fill="#412312" d="M298.2,13c-0.2,0-0.5,0-1,0c-80,0.5-144.7,65.5-144.7,145.7c0,3.7,0.1,7.4,0.4,11
			c3.4,0.3,6.8,0.4,10.3,0.4c68.2,0,124.7-50.4,134.3-116c9.5,65.6,66,116,134.3,116c4,0,7.9-0.2,11.7-0.5c0.3-3.6,0.4-7.2,0.4-10.9
			C443.9,78.2,378.7,13,298.2,13z"/>
		<path fill="#333333" d="M298.3,277.2c16,0,29-12.5,29-28.5c0-0.1,0,0.3,0,0.3h-58.1c0,0,0-0.4,0-0.3
			C269.2,264.8,282.2,277.2,298.3,277.2z"/>
		<g>
			<g>
				<path fill="#333333" d="M349.7,192.4c9,0,15.5,5.6,17,13.6h7.2c-1.7-12-11.3-20.7-24.2-20.7c-12.8,0-22.5,8.7-24.2,20.7h7.2
					C334.2,198,340.6,192.4,349.7,192.4z"/>
			</g>
			<g>
				<path fill="#333333" d="M246.8,192.4c9,0,15.5,5.6,17,13.6h7.2c-1.7-12-11.3-20.7-24.2-20.7c-12.8,0-22.5,8.7-24.2,20.7h7.2
					C231.3,198,237.8,192.4,246.8,192.4z"/>
			</g>
		</g>
	</g>
</g>
</svg>
