<?xml version="1.0" encoding="utf-8"?>
<!-- Generator: Adobe Illustrator 18.0.0, SVG Export Plug-In . SVG Version: 6.00 Build 0)  -->
<!DOCTYPE svg PUBLIC "-//W3C//DTD SVG 1.1//EN" "http://www.w3.org/Graphics/SVG/1.1/DTD/svg11.dtd">
<svg version="1.1" id="Layer_1" xmlns="http://www.w3.org/2000/svg" xmlns:xlink="http://www.w3.org/1999/xlink" x="0px" y="0px"
	 viewBox="0 0 865.5 412.5" enable-background="new 0 0 865.5 412.5" xml:space="preserve">
<path fill="#FFFFFF" d="M845.4,351.9v3.5c5-17.2,7.6-35.4,7.6-54.3c0-108.3-87.8-196.1-196.1-196.1c-37.4,0-72.4,10.5-102.1,28.6
	c-28.6-20.4-63.7-32.5-101.6-32.5c-8.3,0-16.5,0.6-24.4,1.7c-23.8-44.1-70.4-74-124-74c-64.9,0-119.6,43.9-135.9,103.7
	c-88.3,8.9-157.3,83.2-157.3,173.9c0,15.8,2.1,32.4,6,45.4H845.4z"/>
</svg>
