<?xml version="1.0" encoding="utf-8"?>
<!-- Generator: Adobe Illustrator 18.0.0, SVG Export Plug-In . SVG Version: 6.00 Build 0)  -->
<!DOCTYPE svg PUBLIC "-//W3C//DTD SVG 1.1//EN" "http://www.w3.org/Graphics/SVG/1.1/DTD/svg11.dtd">
<svg version="1.1" id="Layer_1" xmlns="http://www.w3.org/2000/svg" xmlns:xlink="http://www.w3.org/1999/xlink" x="0px" y="0px"
	 viewBox="0 0 1020 292" enable-background="new 0 0 1020 292" xml:space="preserve">
<g>
	<polyline fill="#59C3B2" points="0.7,290.4 132.8,61.6 264.8,290.4 0.7,290.4 	"/>
	<polyline fill="#DEC224" points="273.6,124 221.2,214.8 264.8,290.4 369.7,290.4 303.5,290.4 336.6,233.1 273.6,124 	"/>
	<polyline fill="#66A144" points="221.2,214.8 177.5,290.4 264.8,290.4 221.2,214.8 	"/>
	<polyline fill="#5AC3B2" points="364.9,184 336.6,233.1 369.7,290.4 426.4,290.4 364.9,184 	"/>
	<polyline fill="#66A144" points="336.6,233.1 303.5,290.4 369.7,290.4 336.6,233.1 	"/>
	<polyline fill="#59C3B2" points="684,290.4 851.7,0 1019.3,290.4 684,290.4 	"/>
	<polyline fill="#DEC224" points="730.2,59.4 596.8,290.4 684,290.4 773.8,134.9 730.2,59.4 	"/>
	<polyline fill="#66A144" points="773.8,134.9 684,290.4 863.5,290.4 773.8,134.9 	"/>
</g>
</svg>
