<?xml version="1.0" encoding="utf-8"?>
<!-- Generator: Adobe Illustrator 18.0.0, SVG Export Plug-In . SVG Version: 6.00 Build 0)  -->
<!DOCTYPE svg PUBLIC "-//W3C//DTD SVG 1.1//EN" "http://www.w3.org/Graphics/SVG/1.1/DTD/svg11.dtd">
<svg version="1.1" id="Layer_1" xmlns="http://www.w3.org/2000/svg" xmlns:xlink="http://www.w3.org/1999/xlink" x="0px" y="0px"
	 viewBox="0 0 382 382" enable-background="new 0 0 382 382" xml:space="preserve">
<g>
	<circle fill="#F15C27" cx="190.5" cy="190.5" r="189.5"/>
	<g>
		<path fill="#FFFFFF" stroke="#FFFFFF" stroke-width="1.5" stroke-linecap="round" stroke-miterlimit="10" d="M127,263.6l-0.9,0.2
			L126,263v-0.6l-0.1-0.7l-0.1-0.7l-0.2-0.6l-0.2-0.6l-0.2-0.7l-0.3-0.5l-0.3-0.6l-0.4-0.5l-0.3-0.6l-0.4-0.3l-0.5-0.5l-0.6-0.4
			l-0.6-0.2l-0.5-0.2l-0.6-0.1l-0.8-0.2l-0.5-0.1h-0.6l-0.4,0.1l-0.5,0.2l-0.4,0.5l-0.6,0.3l-0.5,0.5l-0.4,0.7l-0.4,0.7l-0.4,0.8
			l-0.3,0.6l-0.2,0.7l-0.2,0.7v0.6v0.7v0.6v0.7l0.3,0.5l0.4,0.6l0.5,0.8l0.6,0.6l0.4,0.6l0.5,0.5l0.5,0.4l0.8,0.5l0.6,0.2l0.8,0.2
			l0.6,0.2l0.7,0.2l0.6,0.2l0.6,0.3l0.7,0.3l0.6,0.3l0.6,0.3l0.6,0.3l0.5,0.3l0.5,0.4l0.5,0.6l0.5,0.5l0.2,0.7l0.4,0.8l0.2,0.7
			l0.1,0.9l0.1,0.6v0.7v0.6v0.7l-0.2,0.8l-0.4,0.8l-0.3,0.7l-0.4,0.8l-0.5,0.7l-0.4,0.4l-0.5,0.6l-0.8,0.6l-0.7,0.3l-0.6,0.2
			l-0.6,0.1l-0.6,0.2l-0.8,0.2H120h-0.6h-0.8h-0.8l-0.6-0.1l-0.8-0.2l-0.7-0.3l-0.8-0.3l-0.5-0.5l-0.5-0.5l-0.4-0.6l-0.3-0.7
			l-0.2-0.6l-0.2-0.7l-0.1-0.6l-0.2-0.8l-0.1-0.7v-0.7v-0.7v-0.6h0.9v0.6v0.7v0.7l0.1,0.6l0.2,0.7l0.1,0.6l0.2,0.7l0.1,0.5l0.3,0.6
			l0.3,0.5l0.4,0.4l0.4,0.4l0.6,0.3l0.6,0.2l0.8,0.2l0.5,0.1h0.6h0.8h0.6h0.6l0.7-0.2l0.6-0.2l0.6-0.1l0.5-0.2l0.6-0.2l0.6-0.5
			l0.4-0.6l0.4-0.4l0.4-0.6l0.4-0.7l0.3-0.7l0.4-0.7l0.1-0.6v-0.6v-0.6V276l-0.1-0.6l-0.1-0.9l-0.1-0.5l-0.4-0.8l-0.2-0.5l-0.3-0.3
			l-0.5-0.6l-0.4-0.3l-0.5-0.3l-0.6-0.3l-0.6-0.3l-0.5-0.3l-0.7-0.3l-0.5-0.2l-0.6-0.2l-0.7-0.2l-0.6-0.2l-0.8-0.2l-0.8-0.3
			l-0.9-0.5l-0.6-0.5l-0.6-0.6l-0.4-0.6l-0.6-0.6l-0.6-0.8l-0.4-0.8l-0.4-0.7v-0.9v-0.6v-0.7v-0.7l0.2-0.9l0.3-0.9l0.3-0.7l0.4-0.8
			l0.4-0.8l0.5-0.7l0.6-0.6l0.6-0.4l0.5-0.5l0.8-0.3l0.6-0.1h0.6l0.6,0.1l0.8,0.2l0.6,0.1l0.6,0.2l0.8,0.3l0.7,0.5l0.5,0.5l0.5,0.4
			l0.4,0.6l0.4,0.6l0.3,0.6l0.3,0.5l0.3,0.8l0.2,0.7l0.2,0.6l0.1,0.8l0.1,0.7v0.6L127,263.6z"/>
		<path fill="#FFFFFF" stroke="#FFFFFF" stroke-width="1.5" stroke-linecap="round" stroke-miterlimit="10" d="M137.5,254.6l0.9,0.1
			l-0.1,0.6l-0.1,0.6v0.7l-0.1,0.7l-0.2,0.7l-0.1,0.7l-0.1,0.7v0.7v0.8v0.8l-0.1,0.7v1v0.7v0.7v0.7v0.9v0.9v0.8v0.9v0.9v0.9v0.9v1
			v0.8l0.1,1v0.8l0.2,0.8l0.2,0.9l0.1,0.7l0.2,0.7l0.2,0.5l0.2,0.7l0.3,0.5l0.4,0.7l0.3,0.5l0.4,0.3l0.5,0.4l0.5,0.3l0.5,0.3
			l0.7,0.2l0.5,0.1h0.6l0.6,0.1h0.7h0.6l0.5-0.1l0.4-0.1l0.5-0.4l0.4-0.5l0.4-0.5l0.4-0.6l0.3-0.5l0.3-0.7l0.4-0.6l0.2-0.6l0.4-0.7
			l0.2-0.6l0.3-0.7l0.2-0.7l0.2-0.7l0.3-0.8l0.2-0.9l0.2-0.9l0.2-0.5v-0.7l0.2-0.7l0.1-0.9l0.1-0.6v-0.7l0.2-0.9l0.1-0.6v-0.7V266
			l0.1-0.6v-0.6v-0.7v-0.6v-0.7v-0.6v-0.9v-0.8v-0.7v-0.6v-0.6v-0.8l-0.1-0.6v-0.3l-0.1-0.2v-1h0.9l0.1,0.9v0.3l0.1,0.4l0.1,0.7v0.8
			v0.7v0.9l0.1,0.8v0.7v0.7v0.8v0.7v0.8l-0.1,0.8v0.8v0.8l-0.1,0.8v0.8v0.9l-0.1,0.7l-0.1,0.7v0.8l-0.1,1v0.8v0.8v0.8v0.7v0.8v0.8
			v0.6v0.8v0.7l-0.1,0.6v0.6v0.9v0.8v0.7v0.6h-0.9v-0.6v-0.7V282v-0.9v-0.6l0.1-0.6v-0.7v-0.8v-0.6V277v-0.8v-0.7v-0.8v-0.3
			l-0.1,0.6l-0.3,0.8l-0.2,0.7l-0.3,0.9l-0.3,0.7l-0.2,0.6l-0.4,0.7l-0.2,0.7l-0.4,0.6l-0.3,0.7l-0.3,0.6l-0.5,0.6l-0.4,0.5
			l-0.4,0.6l-0.7,0.5l-0.6,0.2l-0.7,0.1h-0.6H144l-0.6-0.1h-0.7l-0.6-0.1l-0.8-0.3l-0.6-0.3l-0.6-0.3l-0.5-0.5l-0.5-0.5l-0.4-0.6
			l-0.4-0.7l-0.3-0.6l-0.3-0.7l-0.2-0.6l-0.2-0.8l-0.1-0.7l-0.2-0.8l-0.2-0.9v-0.9l-0.1-1V273v-1V271v-0.9v-0.9v-0.9v-0.8v-0.9v-0.9
			V265v-0.7v-0.7v-1l0.1-0.7v-0.8v-0.8v-0.8l0.1-0.8l0.1-0.7l0.2-0.8l0.1-0.5v-0.8l0.1-0.6L137.5,254.6z"/>
		<path fill="#FFFFFF" stroke="#FFFFFF" stroke-width="1.5" stroke-linecap="round" stroke-miterlimit="10" d="M175.1,263.6
			l-0.9,0.2L174,263v-0.6l-0.1-0.7l-0.1-0.7l-0.2-0.6l-0.2-0.6l-0.2-0.7l-0.3-0.5l-0.3-0.6l-0.4-0.5l-0.3-0.6l-0.4-0.3l-0.5-0.5
			l-0.6-0.4l-0.6-0.2l-0.5-0.2l-0.6-0.1l-0.8-0.2l-0.5-0.1h-0.6l-0.4,0.1l-0.5,0.2l-0.4,0.5l-0.6,0.3l-0.5,0.5l-0.4,0.7l-0.4,0.7
			l-0.4,0.8l-0.3,0.6l-0.2,0.7l-0.2,0.7v0.6v0.7v0.6v0.7l0.3,0.5l0.4,0.6l0.5,0.8l0.6,0.6l0.4,0.6l0.5,0.5l0.5,0.4l0.8,0.5l0.6,0.2
			l0.8,0.2l0.6,0.2l0.7,0.2l0.6,0.2l0.6,0.3l0.7,0.3l0.6,0.3l0.6,0.3l0.6,0.3l0.5,0.3l0.5,0.4l0.5,0.6l0.5,0.5l0.2,0.7l0.4,0.8
			l0.2,0.7l0.1,0.9l0.1,0.6v0.7v0.6v0.7l-0.2,0.8l-0.4,0.8l-0.3,0.7l-0.4,0.8l-0.5,0.7l-0.4,0.4l-0.5,0.6l-0.8,0.6l-0.7,0.3
			l-0.6,0.2l-0.6,0.1l-0.6,0.2l-0.8,0.2h-0.8h-0.6h-0.8h-0.8l-0.6-0.1l-0.8-0.2l-0.7-0.3l-0.8-0.3l-0.5-0.5l-0.5-0.5l-0.4-0.6
			l-0.3-0.7l-0.2-0.6l-0.2-0.7l-0.1-0.6l-0.2-0.8l-0.1-0.7v-0.7v-0.7v-0.6h0.9v0.6v0.7v0.7l0.1,0.6l0.2,0.7l0.1,0.6l0.2,0.7l0.1,0.5
			l0.3,0.6l0.3,0.5l0.4,0.4l0.4,0.4l0.6,0.3l0.6,0.2l0.8,0.2l0.5,0.1h0.6h0.8h0.6h0.6l0.7-0.2l0.6-0.2l0.6-0.1l0.5-0.2l0.6-0.2
			l0.6-0.5l0.4-0.6l0.4-0.4l0.4-0.6l0.4-0.7l0.3-0.7l0.4-0.7l0.1-0.6v-0.6v-0.6V276l-0.1-0.6l-0.1-0.9l-0.1-0.5l-0.4-0.8l-0.2-0.5
			l-0.3-0.3l-0.5-0.6l-0.4-0.3l-0.5-0.3l-0.6-0.3l-0.6-0.3l-0.5-0.3l-0.7-0.3l-0.5-0.2l-0.6-0.2l-0.7-0.2l-0.6-0.2l-0.8-0.2
			l-0.8-0.3l-0.9-0.5l-0.6-0.5l-0.6-0.6l-0.4-0.6l-0.6-0.6l-0.6-0.8l-0.4-0.8l-0.4-0.7v-0.9v-0.6v-0.7v-0.7l0.2-0.9l0.3-0.9l0.3-0.7
			l0.4-0.8l0.4-0.8l0.5-0.7l0.6-0.6l0.6-0.4l0.5-0.5l0.8-0.3l0.6-0.1h0.6l0.6,0.1l0.8,0.2l0.6,0.1l0.6,0.2l0.8,0.3l0.7,0.5l0.5,0.5
			l0.5,0.4l0.4,0.6l0.4,0.6l0.3,0.6l0.3,0.5l0.3,0.8l0.2,0.7l0.2,0.6l0.1,0.8l0.1,0.7v0.6L175.1,263.6z"/>
		<path fill="#FFFFFF" stroke="#FFFFFF" stroke-width="1.5" stroke-linecap="round" stroke-miterlimit="10" d="M185.8,263.6
			l-0.9-0.1l0.1-0.6l0.2-0.7l0.1-0.6l0.1-0.8l0.2-0.7l0.3-0.7l0.3-0.6l0.3-0.6l0.2-0.7l0.4-0.6l0.4-0.6l0.5-0.5l0.5-0.3l0.6-0.3
			l0.5-0.3l0.6-0.3l0.6-0.2l0.6-0.1l0.6-0.1l0.5-0.1l0.6-0.1l0.6-0.1h0.7h0.6l0.7,0.2l0.5,0.3l0.6,0.4l0.4,0.5l0.4,0.5l0.3,0.8
			l0.3,0.7l0.2,0.7l0.2,0.9l0.1,0.8l0.1,0.6v0.9v0.8v0.6v0.7v0.7l-0.1,0.7l-0.1,0.7l-0.1,0.7v0.5h0.1l-0.1,0.6v0.3l-0.1,0.7v0.8
			l-0.1,0.8l-0.1,0.9l-0.1,0.8v0.9l-0.1,0.9v1v0.9v0.9v0.9v0.8v0.7v0.7l0.2,0.6l0.2,0.7l0.1,0.5l0.2,0.4l0.3,0.5l0.5,0.3l0.4,0.3
			l0.4,0.1l0.7,0.1l0.7,0.1l0.6,0.1l-0.1,0.9l-0.6-0.1l-0.7-0.1l-0.6-0.1l-0.6-0.2l-0.6-0.3l-0.6-0.6l-0.4-0.6l-0.3-0.6l-0.1-0.6
			l-0.4,0.5l-0.5,0.5l-0.7,0.3l-0.4,0.3l-0.6,0.4l-0.7,0.2l-0.6,0.3l-0.6,0.1l-0.6,0.1h-0.8h-0.5h-0.6H190h-0.6l-0.9-0.2l-0.6-0.3
			l-0.6-0.2l-0.5-0.5l-0.5-0.5l-0.4-0.4l-0.5-0.5l-0.4-0.5l-0.4-0.8l-0.4-0.7l-0.1-0.7l-0.1-0.6v-0.6v-0.8l0.1-0.7l0.1-0.7l0.4-0.7
			l0.4-0.5l0.4-0.5l0.5-0.6l0.4-0.3l0.5-0.5l0.6-0.3l0.5-0.3l0.8-0.3l0.6-0.1l0.8-0.3l0.7-0.1l0.5-0.2l0.8-0.2h0.6l0.5-0.2l0.7-0.2
			h0.5l0.6-0.2l0.6-0.3l0.6-0.2l0.4-0.2l0.4-0.4l0.3-0.5l0.3-0.4v-0.3v-0.7l0.1-0.7l0.1-0.7l0.1-0.7v-0.6v-0.7v-0.6v-0.8v-0.8
			l-0.1-0.6l-0.1-0.8l-0.2-0.8l-0.2-0.7l-0.2-0.6l-0.3-0.7l-0.3-0.4l-0.3-0.4l-0.5-0.3l-0.4-0.3l-0.5-0.1h-0.5h-0.6l-0.6,0.1
			l-0.6,0.1l-0.5,0.1l-0.6,0.1l-0.5,0.1l-0.5,0.1l-0.5,0.3l-0.5,0.3l-0.6,0.3l-0.4,0.3l-0.4,0.2l-0.3,0.6l-0.4,0.5l-0.2,0.6
			l-0.3,0.6l-0.3,0.6l-0.2,0.6l-0.2,0.7l-0.1,0.7l-0.1,0.7l-0.2,0.6L185.8,263.6z M197.6,268.9l-0.4,0.5l-0.6,0.3l-0.6,0.2l-0.6,0.3
			l-0.7,0.3h-0.6l-0.5,0.2l-0.8,0.2h-0.6l-0.7,0.2l-0.6,0.2l-0.6,0.1l-0.8,0.3l-0.6,0.1l-0.6,0.2l-0.4,0.3l-0.6,0.3l-0.4,0.3
			l-0.4,0.3l-0.4,0.5l-0.4,0.5l-0.3,0.5l-0.4,0.5v0.5l-0.1,0.7v0.6v0.5l0.1,0.6l0.1,0.6l0.3,0.5l0.4,0.8l0.3,0.4l0.4,0.4l0.4,0.4
			l0.5,0.5l0.4,0.3l0.5,0.2l0.6,0.2l0.6,0.2h0.5h0.6h0.6h0.5h0.6l0.6-0.1l0.5-0.1l0.5-0.2l0.6-0.2l0.5-0.4l0.5-0.3l0.5-0.3l0.4-0.4
			l0.4-0.5l0.6,0.5l-0.2-0.5l-0.2-0.7v-0.9v-0.7v-0.8v-0.9v-0.9v-0.9v-1l0.1-0.9v-1l0.1-0.8l0.1-0.9l0.1-0.8V268.9z"/>
		<path fill="#FFFFFF" stroke="#FFFFFF" stroke-width="1.5" stroke-linecap="round" stroke-miterlimit="10" d="M209.7,255.5l0.8-0.5
			l0.3,0.6v0.9v1v0.6v1.2v0.6v0.6v0.7l-0.1,0.6v0.1l0.3-0.4l0.4-0.6l0.5-0.6l0.4-0.5l0.4-0.4l0.3-0.5l0.5-0.5l0.6-0.6l0.6-0.5
			l0.5-0.5l0.6-0.3l0.7-0.5l0.5-0.3l0.6-0.3l0.6-0.3l0.6-0.2l0.6-0.2l0.8-0.2l0.6-0.1l0.8-0.1h0.8h0.5h0.8l0.8,0.4l0.5,0.6l0.4,0.5
			l0.3,0.6l0.2,0.5l0.4,0.7l0.2,0.6l0.2,0.6l0.2,0.8l0.2,0.7l0.2,0.9l0.3,0.8l0.2,0.9l0.1,0.6l0.2,0.9v0.6l0.1,0.9l0.2,1.1l0.1,0.6
			l0.1,0.6v0.6v1.2v0.6v1.2l0.1,0.6v0.7l0.1,0.6v0.6v0.6v0.7l0.1,1.2v0.7v1.1v1.1v0.9v0.8v0.9v0.6v0.6h-0.9v-0.6v-0.6v-0.9v-0.8
			v-0.9v-1.1v-1.1v-0.7l-0.1-1.2v-0.7v-0.6v-0.6l-0.1-0.6v-0.6l-0.1-0.6v-1.3v-0.6v-1.2V268l-0.1-0.5l-0.1-0.6l-0.2-1.1l-0.1-1v-0.5
			l-0.2-0.9l-0.1-0.6l-0.2-0.8l-0.3-0.8l-0.2-0.9l-0.2-0.7l-0.2-0.7l-0.2-0.6l-0.1-0.6l-0.4-0.6l-0.2-0.6l-0.3-0.5l-0.3-0.4
			l-0.4-0.5l-0.4-0.2H223h-0.5h-0.7l-0.8,0.1l-0.6,0.1l-0.6,0.2l-0.6,0.2l-0.5,0.2L218,256l-0.5,0.3l-0.5,0.3l-0.7,0.5l-0.5,0.3
			l-0.5,0.4l-0.6,0.5l-0.6,0.6l-0.4,0.4l-0.3,0.5l-0.4,0.5l-0.4,0.4l-0.5,0.6l-0.4,0.6l-0.4,0.6l-0.3,0.6l-0.3,0.7v0.5l-0.1,0.6v0.6
			l-0.1,0.6v0.7v0.7l-0.1,0.6v0.6v0.6l-0.1,0.8v1.2v0.6v0.6v0.8v1.1v1.1v0.6v0.6v0.9v0.6v0.6v1v0.8v0.7l0.1,0.7v0.7v0.6h-0.9v-0.6
			v-0.7l-0.1-0.7V281v-0.8v-1v-0.6V278v-0.9v-0.6v-0.6v-1.1v-1.1v-0.8v-0.6v-0.6v-1.2l0.1-0.8V269v-0.7l0.1-0.6v-0.6v-0.7l0.1-0.6
			v-0.7l0.1-0.6v-0.6v-0.6v-0.7v-0.7l0.1-0.6v-0.6v-0.6v-0.6v-1.2v-0.6v-1v-0.6L209.7,255.5z"/>
		<path fill="#FFFFFF" stroke="#FFFFFF" stroke-width="1.5" stroke-linecap="round" stroke-miterlimit="10" d="M235.9,255.5l0.8-0.5
			l0.3,0.6v0.9v1v0.6v1.2v0.6v0.6v0.7l-0.1,0.6v0.1l0.3-0.4l0.4-0.6l0.5-0.6l0.4-0.5l0.4-0.4l0.3-0.5l0.5-0.5l0.6-0.6l0.6-0.5
			l0.5-0.5l0.6-0.3l0.7-0.5l0.5-0.3l0.6-0.3l0.6-0.3l0.6-0.2l0.6-0.2l0.8-0.2l0.6-0.1l0.8-0.1h0.8h0.5h0.8l0.8,0.4l0.5,0.6l0.4,0.5
			l0.3,0.6l0.2,0.5l0.4,0.7l0.2,0.6l0.2,0.6l0.2,0.8l0.2,0.7l0.2,0.9l0.3,0.8l0.2,0.9l0.1,0.6l0.2,0.9v0.6l0.1,0.9l0.2,1.1l0.1,0.6
			l0.1,0.6v0.6v1.2v0.6v1.2l0.1,0.6v0.7l0.1,0.6v0.6v0.6v0.7l0.1,1.2v0.7v1.1v1.1v0.9v0.8v0.9v0.6v0.6H254v-0.6v-0.6v-0.9v-0.8v-0.9
			v-1.1v-1.1v-0.7l-0.1-1.2v-0.7v-0.6v-0.6l-0.1-0.6v-0.6l-0.1-0.6v-1.3v-0.6v-1.2V268l-0.1-0.5l-0.1-0.6l-0.2-1.1l-0.1-1v-0.5
			l-0.2-0.9l-0.1-0.6l-0.2-0.8l-0.3-0.8l-0.2-0.9l-0.2-0.7l-0.2-0.7l-0.2-0.6l-0.1-0.6l-0.4-0.6l-0.2-0.6l-0.3-0.5l-0.3-0.4
			l-0.4-0.5l-0.4-0.2h-0.5h-0.5H248l-0.8,0.1l-0.6,0.1l-0.6,0.2l-0.6,0.2l-0.5,0.2l-0.6,0.2l-0.5,0.3l-0.5,0.3l-0.7,0.5l-0.5,0.3
			l-0.5,0.4l-0.6,0.5l-0.6,0.6l-0.4,0.4l-0.3,0.5l-0.4,0.5l-0.4,0.4l-0.5,0.6l-0.4,0.6l-0.4,0.6l-0.3,0.6l-0.3,0.7v0.5l-0.1,0.6v0.6
			l-0.1,0.6v0.7v0.7l-0.1,0.6v0.6v0.6l-0.1,0.8v1.2v0.6v0.6v0.8v1.1v1.1v0.6v0.6v0.9v0.6v0.6v1v0.8v0.7l0.1,0.7v0.7v0.6h-0.9v-0.6
			v-0.7l-0.1-0.7V281v-0.8v-1v-0.6V278v-0.9v-0.6v-0.6v-1.1v-1.1v-0.8v-0.6v-0.6v-1.2l0.1-0.8V269v-0.7l0.1-0.6v-0.6v-0.7l0.1-0.6
			v-0.7l0.1-0.6v-0.6v-0.6v-0.7v-0.7l0.1-0.6v-0.6v-0.6v-0.6v-1.2v-0.6v-1v-0.6L235.9,255.5z"/>
		<path fill="#FFFFFF" stroke="#FFFFFF" stroke-width="1.5" stroke-linecap="round" stroke-miterlimit="10" d="M264.8,263.6
			l-0.9-0.1l0.1-0.6l0.2-0.7l0.1-0.6l0.1-0.8l0.2-0.7l0.3-0.7l0.3-0.6l0.3-0.6l0.2-0.7l0.4-0.6l0.4-0.6l0.5-0.5l0.5-0.3l0.6-0.3
			l0.5-0.3l0.6-0.3l0.6-0.2l0.6-0.1l0.6-0.1l0.5-0.1l0.6-0.1l0.6-0.1h0.7h0.6l0.7,0.2l0.5,0.3l0.6,0.4l0.4,0.5l0.4,0.5l0.3,0.8
			l0.3,0.7l0.2,0.7l0.2,0.9l0.1,0.8l0.1,0.6v0.9v0.8v0.6v0.7v0.7l-0.1,0.7l-0.1,0.7l-0.1,0.7v0.5h0.1l-0.1,0.6v0.3l-0.1,0.7v0.8
			l-0.1,0.8l-0.1,0.9l-0.1,0.8v0.9l-0.1,0.9v1v0.9v0.9v0.9v0.8v0.7v0.7l0.2,0.6l0.2,0.7l0.1,0.5l0.2,0.4l0.3,0.5l0.5,0.3l0.4,0.3
			l0.4,0.1l0.6,0.1l0.7,0.1l0.6,0.1l-0.1,0.9l-0.6-0.1l-0.7-0.1l-0.6-0.1l-0.6-0.2l-0.6-0.3l-0.6-0.6l-0.4-0.6l-0.3-0.6l-0.1-0.6
			l-0.4,0.5l-0.5,0.5l-0.6,0.3l-0.4,0.3l-0.6,0.4l-0.7,0.2l-0.6,0.3l-0.6,0.1l-0.6,0.1h-0.8h-0.5h-0.6H269h-0.6l-0.9-0.2l-0.6-0.3
			l-0.6-0.2l-0.5-0.5l-0.5-0.5l-0.4-0.4l-0.5-0.5l-0.4-0.5l-0.4-0.8l-0.4-0.7l-0.1-0.7l-0.1-0.6v-0.6v-0.8l0.1-0.7l0.1-0.7l0.4-0.7
			l0.4-0.5l0.4-0.5l0.5-0.6l0.4-0.3l0.5-0.5l0.6-0.3l0.5-0.3l0.8-0.3l0.6-0.1l0.8-0.3l0.7-0.1l0.5-0.2l0.8-0.2h0.6l0.5-0.2l0.7-0.2
			h0.5l0.6-0.2l0.6-0.3l0.6-0.2l0.4-0.2l0.4-0.4l0.3-0.5l0.3-0.4v-0.3v-0.7l0.1-0.7l0.1-0.7l0.1-0.7v-0.6v-0.7v-0.6v-0.8v-0.8
			l-0.1-0.6l-0.1-0.8l-0.2-0.8l-0.2-0.7l-0.2-0.6l-0.3-0.7l-0.3-0.4l-0.3-0.4l-0.5-0.3l-0.4-0.3l-0.5-0.1h-0.5h-0.6l-0.6,0.1
			l-0.6,0.1l-0.5,0.1l-0.6,0.1l-0.5,0.1l-0.5,0.1l-0.5,0.3l-0.5,0.3l-0.6,0.3l-0.4,0.3l-0.4,0.2l-0.3,0.6l-0.4,0.5l-0.2,0.6
			l-0.3,0.6l-0.3,0.6l-0.2,0.6l-0.2,0.7l-0.1,0.7l-0.1,0.7l-0.2,0.6L264.8,263.6z M276.6,268.9l-0.4,0.5l-0.6,0.3l-0.6,0.2l-0.6,0.3
			l-0.7,0.3h-0.6l-0.5,0.2l-0.8,0.2h-0.6l-0.7,0.2l-0.6,0.2l-0.6,0.1l-0.8,0.3l-0.6,0.1l-0.6,0.2l-0.4,0.3l-0.6,0.3L266,273
			l-0.4,0.3l-0.4,0.5l-0.4,0.5l-0.3,0.5l-0.4,0.5v0.5l-0.1,0.7v0.6v0.5l0.1,0.6l0.1,0.6l0.3,0.5l0.4,0.8l0.3,0.4l0.4,0.4l0.4,0.4
			l0.5,0.5l0.4,0.3l0.5,0.2l0.6,0.2l0.6,0.2h0.5h0.6h0.6h0.5h0.6l0.6-0.1l0.5-0.1l0.5-0.2l0.6-0.2l0.5-0.4l0.5-0.3l0.5-0.3l0.4-0.4
			l0.4-0.5l0.6,0.5l-0.2-0.5l-0.2-0.7v-0.9v-0.7v-0.8v-0.9v-0.9v-0.9v-1l0.1-0.9v-1l0.1-0.8l0.1-0.9l0.1-0.8V268.9z"/>
	</g>
	<g>
		<path fill="#FFFFFF" stroke="#FFFFFF" stroke-width="2" stroke-linecap="round" stroke-miterlimit="10" d="M166.6,113l1.4,2
			l0.7,2.2l1.4,1.4l0.9,1.8l1.8,2.7l0.7,2.2l0.5,2l0.4,2.2l0.2,2.3l0.2,2l0.4,2l0.4,2l0.2,2.7v2.5v2.5l0.4,2l0.2,2.2v1.8v1.8
			l0.4,2.2v2.7v2.2l0.4,2.2v2v2.5v2.5v2v2v2v1.8v2v2.3v2v2.2v1.8v2.2v1.8v2.3l-0.4,2.7l-0.5,2l-0.4,1.8l-0.2,2.5l-0.5,2.2l-0.9,2.3
			v2l-0.9,2.7l-0.5,2.3l-0.2,2l-0.9,2.2l-0.7,2.5l-1.3,2l-0.7,1.8l-1.3,1.8l-1.6,1.1l-1.8,1.4l-1.8,1.6l-2.7,1.1l-2.2,1.1l-2,1.1
			l-2.2,0.2l-2,0.5l-2,0.4h-2.9h-1.8h-2.2h-1.8h-2.2l-2.2-0.4l-2.3-0.7l-2.3-1.1l-2.3-0.9l-1.8-1.1l-2-1.6l-1.8-1.4l-1.6-1.4l-1.3-2
			l-1.4-2.2l-0.7-2.2l-1.1-1.8l-0.5-2.3l-0.5-2.3l-0.5-2.7l-0.4-1.8l-0.9-2.5l-0.2-3.1v-1.8l-0.5-2v-2.3l-0.4-2v-2.9v-2v-2l-0.2-2.9
			V183v-2.7v-2.5V176v-2.5l0.2-2.7V168v-2.7v-2.5V161v-2.2v-2l0.4-3.1l0.2-2.5l0.4-2l0.2-2.5l0.4-2l0.4-2.7l0.5-2l0.2-2l0.4-2.5
			l0.7-2.2l0.4-1.8l0.7-2.7l0.9-1.8l0.9-2l1.3-2.2l0.9-1.8l1.1-2.2l1.4-1.4l1.3-1.8l1.6-1.6l1.8-1.4l2-1.3l1.8-0.9l1.8-1.1l1.8-0.5
			l1.6-0.9l2.2-0.7l2-0.5l2-0.4h1.1l1.4-0.5h1.4h1.6h0.9h1.4h1.8l2.5,0.9l1.3,0.5l1.6,0.4l0.9,0.9l1.3,0.4l0.7,0.9l1.3,0.7l1.8,0.9
			L166.6,113z M159.4,111.2l-0.9-0.2l-1.4-0.9l-1.1-0.7l-1.8-0.5h-1.4h-1.4h-0.9h-1.6h-1.1l-1.4,0.5h-1.1l-1.6,0.4l-2,0.5l-1.8,0.4
			l-1.6,0.9l-1.8,0.5l-1.4,1.1l-1.8,0.9l-1.6,1.3l-1.8,1.1l-1.3,1.3l-1.3,1.8l-1.1,1.4l-1.1,1.8l-0.9,1.8l-1.3,2.2l-0.9,2l-0.9,1.4
			l-0.4,2.3l-0.4,1.8l-0.7,2.2l-0.4,2.2l-0.2,2l-0.5,2.3l-0.4,2.3l-0.4,2l-0.2,2.5l-0.4,2l-0.2,2.5l-0.4,2.7v2v2.2v1.8v2.5v2.7v2.7
			l-0.2,2.7v2.5v1.8v2.5v2.7v2.5l0.2,2.9v2v2v2.5l0.4,2v2.3l0.5,2v2.2l0.2,2.3l0.9,2.5l0.4,1.8l0.5,2.7l0.5,2.3l0.5,2l0.7,1.8
			l0.7,1.8l1.4,2.2l0.9,1.6l1.3,1.1l1.8,1.4l2,1.3l1.4,1.1l2,0.9l2.3,0.7l2,0.7l1.8,0.4h1.8h1.8h2.2h1.8h2.5l1.6-0.4l2.3-0.5
			l1.8-0.2l1.3-0.7l2.5-1.1l2.3-1.1l1.4-1.3l1.8-1.4l1.3-1.1l0.9-1.1l0.7-1.8l1.3-1.6l0.4-2.2l0.9-2.2l0.2-1.6l0.5-2.7l0.9-2.3v-2
			l0.9-2.7l0.5-1.8l0.2-2.5l0.4-2.2l0.5-2l0.4-2.3v-2v-1.8v-2.2v-1.8v-2.2v-2V179v-2v-1.8v-2v-2v-2v-2.5v-2.5v-1.6l-0.4-2.2V158
			v-2.3l-0.4-2.2v-2.2v-1.8l-0.2-1.8l-0.4-2v-2.9v-2.5l-0.2-2.3l-0.4-2l-0.4-2l-0.2-2l-0.2-2.3l-0.4-1.8l-0.5-2l-0.4-1.8l-1.8-2.3
			l-0.9-1.4l-1.4-1.8l-0.7-2.2l-1.1-1.6l-1.6-1.1l-1.4-1.1l-0.4-0.4l-1.4-0.9L159.4,111.2z"/>
		<path fill="#FFFFFF" stroke="#FFFFFF" stroke-width="2" stroke-linecap="round" stroke-miterlimit="10" d="M265.8,233.9H263
			l0.2-3.1v-3.1v-2v-2v-2.2v-2v-2.2v-2.3v-2v-2.3v-2.5v-2V204v-1.8v-2.5v-2.5l0.4-2.9v-2.2v-2.7l0.4-2.7v-2.2l0.2-2.7v-2.7v-2.7
			v-2.2l0.4-2.5v-0.9h-0.9H261h-2.3h-2h-2.2h-2h-2h-2.3h-2.5h-2.9h-2h-3.2h-2.3h-2.7h-2.9H227h-2.7H222h-2.5h-2.3l-2.7-0.4v0.5v1.8
			v2.2v2.2v2.2v2.3v2.5v2v2.7l0.2,1.6l0.4,2.3v2.5l0.2,2v2.5v2.7l0.4,2l0.4,2.3v2.9l0.2,2.9v2.7v2.2v2.9v2.2l0.4,2.3v4v2.9l-0.4,2.2
			l-2.9-0.4l0.4-2.2v-2.5v-3.6l-0.4-2.3v-2.5v-2.9v-2.2v-2.7l-0.2-2.9v-2.5l-0.4-2.3l-0.4-2v-3.1v-2.5l-0.2-2v-2.2l-0.4-2.3l-0.2-2
			v-2.7v-2v-2.5v-2.3v-2.2v-2.2v-2.2v-1.8v-2.3v-2.2v-3.2l0.2-3.4l0.4-3.6v-4l0.2-2.2V147l0.4-4.1l0.5-3.1v-3.1l0.4-3.4l0.2-2.9
			v-3.1l0.7-2.9l0.5-3.1l0.2-2.9l0.4-2.7l0.5-2.7l0.4-2.3l0.5-2.2v-2.3l1.3-2.5l2.5,1.4l-0.9,1.8v2l-0.5,2.5l-0.4,2l-0.5,2.7
			l-0.4,2.7l-0.2,2.9l-0.5,3.4l-0.7,2.5v2.7l-0.2,3.2l-0.4,3.1v3.4l-0.5,3.1l-0.4,3.8v3.2l-0.2,2.2v4l-0.4,4l-0.2,3.1v3.2v1.1
			l2.7,0.4h2.3h2.5h2.3h2.7h2.7h2.9h2.7h2.3h3.2h2h2.9h2.5h2.3h2h2h2.2h2h2.3h2.5h0.9v-0.5v-2.3v-2.3v-2v-2.3v-3.6v-2.2v-3.4v-3.2
			l-0.4-3.2v-2.2l-0.2-3.2v-3.4v-3.6v-3.1v-2l-0.4-3.1l-0.4-2.7v-2.5V115l-0.2-2.2v-1.6l-0.4-2.3l2.9-0.4l0.4,2.3v2l0.2,2.2v2.2v2.2
			l0.4,2.7l0.4,3.4v2v3.1v3.6v3.4l0.2,3.2v2.2l0.4,3.2v3.2v3.4v2.2v3.6v2.3v2v2.3v2.3v2.3v2.3l-0.4,2.5v1.8v2.7v2.7l-0.2,2.7v2.5
			l-0.4,2.7v2.3v2.2l-0.4,2.9v2.5v2.5v1.8v2.3v2v2.5v2.3v2v2.3v2.2v2v2.2v2v2v3.1L265.8,233.9z"/>
	</g>
</g>
</svg>
