<?xml version="1.0" encoding="utf-8"?>
<!-- Generator: Adobe Illustrator 18.0.0, SVG Export Plug-In . SVG Version: 6.00 Build 0)  -->
<!DOCTYPE svg PUBLIC "-//W3C//DTD SVG 1.1//EN" "http://www.w3.org/Graphics/SVG/1.1/DTD/svg11.dtd">
<svg version="1.1" id="Layer_1" xmlns="http://www.w3.org/2000/svg" xmlns:xlink="http://www.w3.org/1999/xlink" x="0px" y="0px"
	 viewBox="0 0 432 633" enable-background="new 0 0 432 633" xml:space="preserve">
<line fill="none" stroke="#C1282D" stroke-width="5" stroke-miterlimit="10" x1="333.8" y1="163.1" x2="333.8" y2="32.1"/>
<rect x="331.4" y="31.6" fill="#C1282D" width="45.8" height="30.5"/>
<rect x="202.8" y="303.6" fill="#0C2C26" width="49.3" height="294.1"/>
<path fill="#F15C27" d="M340,163.1c-0.5-65.7-53.9-118.8-119.7-118.8c-65.8,0-119.2,53.1-119.7,118.8h0v175.2h239.5L340,163.1
	L340,163.1z"/>
<rect x="126.5" y="166.3" fill="#FFFFFF" width="192.2" height="24.4"/>
<g>
	<polygon fill="#DDC224" stroke="#FFFFFF" stroke-width="2" stroke-miterlimit="10" points="288.6,188.4 225.8,238.7 144.9,135.1 
		207.6,84.9 	"/>
	<polygon fill="#DDC224" stroke="#FFFFFF" stroke-width="2" stroke-linejoin="round" stroke-miterlimit="10" points="145.3,135.4 
		227.6,153.3 225.8,238.4 	"/>
	<polygon fill="#DDC224" stroke="#FFFFFF" stroke-width="2" stroke-linejoin="round" stroke-miterlimit="10" points="288.4,188.2 
		206,170.2 207.6,84.8 	"/>
</g>
<rect x="126.5" y="190.7" fill="#F15C27" width="192.7" height="64.1"/>
<polyline fill="#59C3B2" points="140,596.6 154.9,530.2 169.9,596.6 "/>
<polyline fill="#59C3B2" points="153.7,596.6 172.9,511.6 192.1,596.6 "/>
<polyline fill="#59C3B2" points="170.5,596.6 183.6,538.7 196.6,596.6 "/>
<polyline fill="#59C3B2" points="181.9,596.6 197.1,529.5 212.2,596.6 "/>
<polyline fill="#59C3B2" points="258.9,596.6 274.1,529.5 289.2,596.6 "/>
<polyline fill="#59C3B2" points="269.6,596.6 288,515 306.5,596.6 "/>
<polyline fill="#59C3B2" points="279.5,596.6 295.7,524.9 311.9,596.6 "/>
<polyline fill="#59C3B2" points="246.7,596.6 262.9,524.9 279.1,596.6 "/>
</svg>
