<?xml version="1.0" encoding="utf-8"?>
<!-- Generator: Adobe Illustrator 18.0.0, SVG Export Plug-In . SVG Version: 6.00 Build 0)  -->
<!DOCTYPE svg PUBLIC "-//W3C//DTD SVG 1.1//EN" "http://www.w3.org/Graphics/SVG/1.1/DTD/svg11.dtd">
<svg version="1.1" id="Layer_1" xmlns="http://www.w3.org/2000/svg" xmlns:xlink="http://www.w3.org/1999/xlink" x="0px" y="0px"
	 viewBox="0 0 814 207" enable-background="new 0 0 814 207" xml:space="preserve">
<g>
	<g>
		<circle fill="#FFFFFF" cx="377.1" cy="37.5" r="3.2"/>
	</g>
	<g>
		<g>
			
				<rect x="338" y="50.1" transform="matrix(0.8991 0.4378 -0.4378 0.8991 81.5497 -147.7965)" fill="#0C2C26" width="46.7" height="105.7"/>
		</g>
		<g>
			<polygon fill="#FFFFFF" points="357.5,159.4 326.6,174.5 319.4,140.9 			"/>
			<path fill="#0C2C26" d="M326.2,176.6c-0.2,0-0.4-0.1-0.5-0.2c-0.6-0.3-1-0.9-1.2-1.5l-7.2-33.6c-0.2-0.8,0.1-1.7,0.8-2.2
				c0.7-0.5,1.6-0.6,2.3-0.2l38,18.5c0.8,0.4,1.2,1.1,1.2,2c0,0.8-0.5,1.6-1.2,2l-30.9,15.1C327.1,176.7,326.6,176.7,326.2,176.6z
				 M322.5,144.8l5.6,26.4l24.3-11.9L322.5,144.8z"/>
		</g>
		<g>
			<path fill="#989898" d="M373.3,150.7c0.2-0.2,0.5-0.4,0.8-0.5"/>
		</g>
		<g>
			<path fill="#0C2C26" d="M326.8,170.2c0.3,1.6,1.7,2.4,3.1,1.7l10.8-5.5l-16.3-7.9L326.8,170.2z"/>
		</g>
		<g>
			<g>
				<path fill="#F15C27" d="M414.9,46.3c1.7-3.4,1.1-7.1-1.2-8.2l-33.6-16.3c-2.3-1.1-5.5,0.7-7.2,4.1l-8.3,17l42,20.4L414.9,46.3z"
					/>
			</g>
		</g>
		<g>
			<path fill="#FFFFFF" d="M333.6,136.8c-0.6,1.2-2.2,1.6-3.6,0.9l-1.3-0.6c-1.4-0.7-2.1-2.2-1.5-3.4l37.2-76.5
				c0.6-1.2,2.2-1.6,3.6-0.9l1.3,0.6c1.4,0.7,2.1,2.2,1.5,3.4L333.6,136.8z"/>
		</g>
	</g>
	<g>
		<circle fill="#FFFFFF" cx="376.8" cy="39.7" r="4.1"/>
	</g>
</g>
<path fill="#CDCCCC" d="M259,125.5L241.5,108c-2.5-2.5-6.5-2.5-9,0c-2.5,2.5-2.5,6.3,0,8.8l6.5,6.3h-34.1c-3.5,0-6.4,3.5-6.4,7
	c0,3.5,2.9,7,6.4,7h34.2l-6.6,6.3c-2.5,2.5-2.5,6.4,0,8.9c1.2,1.2,2.9,1.8,4.5,1.8c1.6,0,3.3-0.7,4.5-1.9l17.4-17.5
	C261.4,132,261.4,128,259,125.5z"/>
<path fill="#CDCCCC" d="M471,125.5L453.5,108c-2.5-2.5-6.5-2.5-9,0c-2.5,2.5-2.5,6.3,0,8.8l6.5,6.3h-34.1c-3.5,0-6.4,3.5-6.4,7
	c0,3.5,2.9,7,6.4,7h34.2l-6.6,6.3c-2.5,2.5-2.5,6.4,0,8.9c1.2,1.2,2.9,1.8,4.5,1.8c1.6,0,3.3-0.7,4.5-1.9l17.4-17.5
	C473.4,132,473.4,128,471,125.5z"/>
<g>
	<g>
		<path fill="#0C2C26" d="M87.9,169.4c0,3.3-2.7,6-6,6c-3.3,0-6-2.7-6-6"/>
		<g>
			<path fill="#DEC224" d="M82.6,45.4c23.5,0,42.9,20.3,42.5,45.6c-0.6,34.6-26.6,30.1-30.7,59.1h-24c-4-29-30-24.5-30.7-59.1
				c-0.5-25.3,19-45.7,42.5-45.7"/>
		</g>
		<g>
			<path fill="#0C2C26" d="M91.5,166H72c-1.1,0-2-0.5-2.2-1.6c-0.2-1.2,0.4-2.1,1.4-2.5l9.3-3.9H72c-1.3,0-2.3-1.1-2.3-2.5
				s1-2.5,2.3-2.5H92c1.1,0,2,0.8,2.2,2c0.2,1.2-0.4,2.4-1.4,2.8l-9.3,4.2h7.9c1.3,0,2.3,0.6,2.3,2S92.8,166,91.5,166z"/>
		</g>
		<g>
			<path fill="#FFFFFF" d="M52.6,106.9c-1.2,0-2.3-0.7-2.9-1.8c-5.4-11.3-3.1-21.5-0.2-28c4.3-9.6,11.7-16.2,16.9-17.8
				c1.7-0.5,3.5,0.5,4,2.2c0.5,1.7-0.5,3.5-2.2,4c-3.1,0.9-9.3,6.1-12.9,14.2c-2.4,5.3-4.3,13.6,0.1,22.7c0.8,1.6,0.1,3.5-1.5,4.3
				C53.6,106.8,53.1,106.9,52.6,106.9z"/>
		</g>
	</g>
	<g>
		
			<line fill="none" stroke="#EAD680" stroke-width="10" stroke-linecap="round" stroke-miterlimit="10" x1="15.4" y1="68.6" x2="33.6" y2="73.3"/>
		
			<line fill="none" stroke="#EAD680" stroke-width="10" stroke-linecap="round" stroke-miterlimit="10" x1="41.6" y1="32.5" x2="48.2" y2="48.7"/>
		
			<line fill="none" stroke="#EAD680" stroke-width="10" stroke-linecap="round" stroke-miterlimit="10" x1="13.5" y1="106.2" x2="32.4" y2="106.3"/>
		
			<line fill="none" stroke="#EAD680" stroke-width="10" stroke-linecap="round" stroke-miterlimit="10" x1="82.5" y1="20.4" x2="82.4" y2="37.8"/>
		
			<line fill="none" stroke="#EAD680" stroke-width="10" stroke-linecap="round" stroke-miterlimit="10" x1="151.3" y1="70.7" x2="133.1" y2="75.4"/>
		
			<line fill="none" stroke="#EAD680" stroke-width="10" stroke-linecap="round" stroke-miterlimit="10" x1="125.1" y1="34.6" x2="118.5" y2="50.9"/>
		
			<line fill="none" stroke="#EAD680" stroke-width="10" stroke-linecap="round" stroke-miterlimit="10" x1="153.2" y1="108.4" x2="134.3" y2="108.5"/>
	</g>
</g>
<g>
	<polygon fill="#0C2C26" points="678.1,158 678,137 618,137.1 618.1,158.1 603.1,158.1 603.1,171.1 692.1,171 692.1,158 	"/>
	<g>
		<path fill="#0C2C26" d="M759.1,142.5c0,1.3-1.5,2.4-3.4,2.4l-216.2,0.3c-1.9,0-3.4-1.1-3.4-2.4L535.9,9.6c0-1.3,1.5-2.4,3.4-2.4
			l216.2-0.3c1.9,0,3.4,1.1,3.4,2.4L759.1,142.5z"/>
		<path fill="#F3F3F3" d="M752,135.7c0,1.2-1.4,2.1-3.2,2.1l-201.7,0.3c-1.8,0-3.2-1-3.2-2.1l-0.2-119.7c0-1.2,1.4-2.1,3.2-2.1
			l201.7-0.3c1.8,0,3.2,1,3.2,2.1L752,135.7z"/>
	</g>
	<g>
		<g>
			<path fill="#F15C27" d="M716.6,205c-2.2,0-3.9-1.7-3.9-4.1l-0.1-103.2c0-2.4,1.8-4.3,3.9-4.3l82.1-0.1c2.2,0,3.9,2,3.9,4.3
				l0.1,103.3c0,1.1-0.4,2.2-1.1,3c-0.7,0.9-1.8,1.1-2.9,1.1L716.6,205L716.6,205z"/>
			<path fill="#FFFFFF" d="M798.5,95c1.3,0,2.4,1.2,2.4,2.7l0.1,103.3c0,1.6-1.1,2.9-2.4,2.9l-82.1,0.1c0,0,0,0,0,0
				c-1.3,0-2.4-1.3-2.4-2.9L714,97.8c0-1.6,1.1-2.7,2.4-2.8L798.5,95h0.5 M798.5,92L798.5,92l-82.1,0c-3,0-5.4,2.6-5.4,5.8
				l0.1,103.3c0,3.2,2.4,5.8,5.4,5.8l82.1-0.1c1.5,0,3-0.7,4-1.9c0.9-1.1,1.4-2.5,1.4-4L804,97.7C804,94.5,801.5,92,798.5,92
				L798.5,92z"/>
		</g>
		
			<line fill="none" stroke="#F3F3F3" stroke-width="8" stroke-linecap="round" stroke-miterlimit="10" x1="726" y1="117.9" x2="790" y2="117.8"/>
		
			<line fill="none" stroke="#F3F3F3" stroke-width="8" stroke-linecap="round" stroke-miterlimit="10" x1="726" y1="136.9" x2="790" y2="136.8"/>
		
			<line fill="none" stroke="#F3F3F3" stroke-width="8" stroke-linecap="round" stroke-miterlimit="10" x1="726.1" y1="156.9" x2="790.1" y2="156.8"/>
		
			<line fill="none" stroke="#F3F3F3" stroke-width="8" stroke-linecap="round" stroke-miterlimit="10" x1="726.1" y1="176.9" x2="790.1" y2="176.8"/>
	</g>
	<rect x="563" y="31.1" transform="matrix(1 -1.446453e-03 1.446453e-03 1 -0.108 0.8549)" fill="#DEC224" width="56" height="88"/>
	
		<rect x="627.9" y="31" transform="matrix(1 -1.448213e-03 1.448213e-03 1 -7.101355e-02 0.95)" fill="#DEC224" width="56" height="37"/>
	<g>
		<g>
			<path fill="#0C2C26" d="M531,171c-3,0-5.4-2.6-5.4-5.6l-0.1-53.2c0-3,2.4-5.5,5.4-5.5l31.1-0.1c3,0,5.4,2.4,5.5,5.4l0.1,53.1
				c0,3-2.4,5.6-5.4,5.6L531,171L531,171z"/>
			<path fill="#FFFFFF" d="M562.1,108c2.2,0,3.9,1.8,3.9,4l0.1,53.1c0,2.2-1.8,3.9-3.9,3.9l-31.1,0c0,0,0,0,0,0
				c-2.2,0-3.9-1.7-3.9-3.8l-0.1-53.1c0-2.2,1.8-4,3.9-4L562.1,108C562.1,108,562,108,562.1,108 M562.1,105L562.1,105l-31.1,0.1
				c-1.9,0-3.6,0.8-4.9,2.1c-1.3,1.3-2,3.1-2,4.9l0.1,53.1c0,3.8,3.1,6.9,6.9,6.9l31.1,0c3.8,0,6.9-3.1,6.9-7L569,112
				C569,108.2,565.9,105,562.1,105L562.1,105z"/>
		</g>
		
			<rect x="532" y="116.2" transform="matrix(1 -1.448274e-03 1.448274e-03 1 -0.201 0.7917)" fill="#F3F3F3" width="29" height="46"/>
		<circle fill="#F15C27" cx="546" cy="137.2" r="9"/>
	</g>
	<path fill="#0C2C26" d="M647.6,184.4c0,1.4-2,2.6-4.5,2.6l-113.5,0.2c-2.5,0-4.5-1.2-4.5-2.6l0-8.8c0-1.4,2-2.6,4.5-2.6l113.5-0.2
		c2.5,0,4.5,1.2,4.5,2.6L647.6,184.4z"/>
	<path fill="#0C2C26" d="M647.6,201.4c0,1.4-2,2.6-4.5,2.6l-113.5,0.2c-2.5,0-4.5-1.2-4.5-2.6l0-8.8c0-1.4,2-2.6,4.5-2.6l113.5-0.2
		c2.5,0,4.5,1.2,4.5,2.6L647.6,201.4z"/>
	<g>
		<path fill="#DEC224" stroke="#FFFFFF" stroke-width="3" stroke-miterlimit="10" d="M711.1,202c0,2.2-1.8,3.9-3.9,4l-53.1,0.1
			c-2.2,0-3.9-1.8-4-3.9l0-31.1c0-2.2,1.8-3.9,3.9-4l53.1-0.1c2.2,0,3.9,1.8,4,3.9L711.1,202z"/>
		<circle fill="#F3F3F3" cx="667.1" cy="185.5" r="11.5"/>
	</g>
	<circle fill="#DDC224" cx="656.5" cy="97.5" r="24.5"/>
</g>
</svg>
